<svg width="37" height="32" viewBox="0 0 37 32" fill="none" xmlns="http://www.w3.org/2000/svg">
<path fill-rule="evenodd" clip-rule="evenodd" d="M18.5 2.52615C16.1163 0.930976 13.2485 0 10.1666 0C6.62095 0 3.35852 1.2323 0.790842 3.29064L0.166626 3.79103V31.8132L2.87574 29.6415C4.87339 28.0401 7.40599 27.0833 10.1666 27.0833C12.9273 27.0833 15.4599 28.0401 17.4575 29.6415L18.5 30.4771L19.5424 29.6415C21.5401 28.0401 24.0727 27.0833 26.8333 27.0833C29.5939 27.0833 32.1265 28.0401 34.1242 29.6415L36.8333 31.8132V3.79103L36.2091 3.29064C33.6414 1.2323 30.379 0 26.8333 0C23.7515 0 20.8836 0.930976 18.5 2.52615ZM3.49996 5.42429V25.3097C5.50872 24.3115 7.77314 23.75 10.1666 23.75C12.5601 23.75 14.8245 24.3115 16.8333 25.3097V5.42429C14.9436 4.1058 12.6472 3.33333 10.1666 3.33333C7.68607 3.33333 5.38963 4.1058 3.49996 5.42429ZM20.1666 5.42429V25.3097C22.1754 24.3115 24.4398 23.75 26.8333 23.75C29.2268 23.75 31.4912 24.3115 33.5 25.3097V5.42429C31.6103 4.1058 29.3138 3.33333 26.8333 3.33333C24.3527 3.33333 22.0563 4.1058 20.1666 5.42429Z" fill="white"/>
</svg>
