<svg width="38" height="35" viewBox="0 0 38 35" fill="none" xmlns="http://www.w3.org/2000/svg">
<path fill-rule="evenodd" clip-rule="evenodd" d="M3.99973 5.33325C3.99973 2.57183 6.23831 0.333252 8.99973 0.333252C11.7612 0.333252 13.9997 2.57183 13.9997 5.33325C13.9997 8.09468 11.7612 10.3333 8.99973 10.3333C6.23831 10.3333 3.99973 8.09468 3.99973 5.33325ZM8.99973 3.66659C8.07926 3.66659 7.33306 4.41278 7.33306 5.33325C7.33306 6.25373 8.07926 6.99992 8.99973 6.99992C9.92021 6.99992 10.6664 6.25373 10.6664 5.33325C10.6664 4.41278 9.92021 3.66659 8.99973 3.66659Z" fill="white"/>
<path fill-rule="evenodd" clip-rule="evenodd" d="M23.9997 5.33325C23.9997 2.57183 26.2383 0.333252 28.9997 0.333252C31.7612 0.333252 33.9997 2.57183 33.9997 5.33325C33.9997 8.09468 31.7612 10.3333 28.9997 10.3333C26.2383 10.3333 23.9997 8.09468 23.9997 5.33325ZM28.9997 3.66659C28.0793 3.66659 27.3331 4.41278 27.3331 5.33325C27.3331 6.25373 28.0793 6.99992 28.9997 6.99992C29.9202 6.99992 30.6664 6.25373 30.6664 5.33325C30.6664 4.41278 29.9202 3.66659 28.9997 3.66659Z" fill="white"/>
<path fill-rule="evenodd" clip-rule="evenodd" d="M12.333 16.9999C12.333 13.318 15.3177 10.3333 18.9996 10.3333C22.6815 10.3333 25.6663 13.318 25.6663 16.9999C25.6663 20.6818 22.6815 23.6666 18.9996 23.6666C15.3177 23.6666 12.333 20.6818 12.333 16.9999ZM18.9996 13.6666C17.1587 13.6666 15.6663 15.159 15.6663 16.9999C15.6663 18.8409 17.1587 20.3333 18.9996 20.3333C20.8406 20.3333 22.333 18.8409 22.333 16.9999C22.333 15.159 20.8406 13.6666 18.9996 13.6666Z" fill="white"/>
<path d="M1.00058 15.998C2.82221 13.5734 5.72746 11.9999 8.99973 11.9999H10.6664V15.3333H8.99973C6.82001 15.3333 4.88468 16.3776 3.66555 18.0002L2.66443 19.3327L-0.000549316 17.3305L1.00058 15.998Z" fill="white"/>
<path d="M27.3331 11.9999H28.9997C32.2724 11.9999 35.178 13.5738 36.9996 15.999L38.0006 17.3316L35.3354 19.3335L34.3344 18.0009C33.1153 16.3779 31.1797 15.3333 28.9997 15.3333H27.3331V11.9999Z" fill="white"/>
<path d="M8.05584 31.0464C10.4624 27.5962 14.466 25.3333 18.9983 25.3333C23.5307 25.3333 27.5342 27.5962 29.9408 31.0464L30.8943 32.4134L28.1604 34.3204L27.2069 32.9534C25.397 30.3587 22.3951 28.6666 18.9983 28.6666C15.6015 28.6666 12.5997 30.3587 10.7898 32.9534L9.83629 34.3204L7.10234 32.4134L8.05584 31.0464Z" fill="white"/>
</svg>
