<svg width="30" height="38" viewBox="0 0 30 38" fill="none" xmlns="http://www.w3.org/2000/svg">
<path d="M14.9454 20.6667C14.1711 20.6667 13.5163 21.1962 13.3312 21.9154L12.9158 23.5295L9.68763 22.6986L10.1031 21.0846C10.658 18.9284 12.6134 17.3333 14.9454 17.3333C17.7069 17.3333 19.9454 19.5719 19.9454 22.3333C19.9454 23.8857 19.1879 24.9155 18.3946 25.6812C18.0732 25.9914 17.7072 26.2948 17.3782 26.5674C17.3296 26.6077 17.2819 26.6472 17.2353 26.686C16.8512 27.0055 16.4837 27.3188 16.124 27.6785L14.9455 28.857L12.5885 26.5L13.767 25.3215C14.2405 24.8479 14.7064 24.4538 15.1036 24.1234C15.1562 24.0796 15.207 24.0375 15.2561 23.9967C15.597 23.7137 15.8557 23.4989 16.0797 23.2828C16.5363 22.8421 16.6121 22.6219 16.6121 22.3333C16.6121 21.4128 15.8659 20.6667 14.9454 20.6667Z" fill="white"/>
<path d="M13.278 29H16.628V32.3333H13.278V29Z" fill="white"/>
<path fill-rule="evenodd" clip-rule="evenodd" d="M0 0.666656H19.0237L30 11.643V37.3333H0V0.666656ZM3.33333 3.99999V34H26.6667V14H16.6667V3.99999H3.33333ZM20 6.35701L24.3096 10.6667H20V6.35701Z" fill="white"/>
</svg>
