<svg width="37" height="32" viewBox="0 0 37 32" fill="none" xmlns="http://www.w3.org/2000/svg">
<path fill-rule="evenodd" clip-rule="evenodd" d="M18.5 2.52615C16.1164 0.930976 13.2485 0 10.1667 0C6.62101 0 3.35859 1.2323 0.790903 3.29064L0.166687 3.79103V31.8132L2.8758 29.6415C4.87345 28.0401 7.40605 27.0833 10.1667 27.0833C12.9273 27.0833 15.4599 28.0401 17.4576 29.6415L18.5 30.4771L19.5425 29.6415C21.5401 28.0401 24.0727 27.0833 26.8334 27.0833C29.594 27.0833 32.1266 28.0401 34.1242 29.6415L36.8334 31.8132V3.79103L36.2091 3.29064C33.6415 1.2323 30.379 0 26.8334 0C23.7515 0 20.8837 0.930976 18.5 2.52615ZM3.50002 5.42429V25.3097C5.50878 24.3115 7.7732 23.75 10.1667 23.75C12.5602 23.75 14.8246 24.3115 16.8334 25.3097V5.42429C14.9437 4.1058 12.6472 3.33333 10.1667 3.33333C7.68614 3.33333 5.38969 4.1058 3.50002 5.42429ZM20.1667 5.42429V25.3097C22.1754 24.3115 24.4399 23.75 26.8334 23.75C29.2268 23.75 31.4913 24.3115 33.5 25.3097V5.42429C31.6103 4.1058 29.3139 3.33333 26.8334 3.33333C24.3528 3.33333 22.0564 4.1058 20.1667 5.42429Z" fill="white"/>
</svg>
