<svg width="30" height="38" viewBox="0 0 30 38" fill="none" xmlns="http://www.w3.org/2000/svg">
<path d="M14.9454 20.6667C14.1711 20.6667 13.5163 21.1963 13.3312 21.9155L12.9158 23.5296L9.68763 22.6987L10.1031 21.0846C10.658 18.9285 12.6134 17.3334 14.9454 17.3334C17.7069 17.3334 19.9454 19.572 19.9454 22.3334C19.9454 23.8857 19.1879 24.9156 18.3946 25.6813C18.0732 25.9915 17.7072 26.2949 17.3782 26.5675C17.3296 26.6078 17.2819 26.6473 17.2353 26.6861C16.8512 27.0056 16.4837 27.3188 16.124 27.6786L14.9455 28.8571L12.5885 26.5001L13.767 25.3216C14.2405 24.848 14.7064 24.4539 15.1036 24.1235C15.1562 24.0797 15.207 24.0375 15.2561 23.9968C15.597 23.7138 15.8557 23.499 16.0797 23.2829C16.5363 22.8422 16.6121 22.622 16.6121 22.3334C16.6121 21.4129 15.8659 20.6667 14.9454 20.6667Z" fill="white"/>
<path d="M13.278 29.0001H16.628V32.3334H13.278V29.0001Z" fill="white"/>
<path fill-rule="evenodd" clip-rule="evenodd" d="M0 0.666748H19.0237L30 11.6431V37.3334H0V0.666748ZM3.33333 4.00008V34.0001H26.6667V14.0001H16.6667V4.00008H3.33333ZM20 6.3571L24.3096 10.6667H20V6.3571Z" fill="white"/>
</svg>
