<svg width="24" height="21" viewBox="0 0 24 21" fill="none" xmlns="http://www.w3.org/2000/svg">
<path fill-rule="evenodd" clip-rule="evenodd" d="M7.99992 13C7.99992 10.7908 9.79078 8.99997 11.9999 8.99997C14.2091 8.99997 15.9999 10.7908 15.9999 13C15.9999 15.2091 14.2091 17 11.9999 17C9.79078 17 7.99992 15.2091 7.99992 13ZM11.9999 11C10.8954 11 9.99992 11.8954 9.99992 13C9.99992 14.1045 10.8954 15 11.9999 15C13.1045 15 13.9999 14.1045 13.9999 13C13.9999 11.8954 13.1045 11 11.9999 11Z" fill="white"/>
<path fill-rule="evenodd" clip-rule="evenodd" d="M11.9999 0.1875L23.4095 9.88565L22.1142 11.4095L20.9999 10.4624V20.9999H2.99992V10.4624L1.88563 11.4095L0.590332 9.88565L11.9999 0.1875ZM4.99992 8.76238V18.9999H18.9999V8.76238L11.9999 2.81238L4.99992 8.76238Z" fill="white"/>
</svg>
