<svg width="20" height="22" viewBox="0 0 20 22" fill="none" xmlns="http://www.w3.org/2000/svg">
<path fill-rule="evenodd" clip-rule="evenodd" d="M5 5C5 2.23858 7.23858 0 10 0C12.7614 0 15 2.23858 15 5C15 7.76142 12.7614 10 10 10C7.23858 10 5 7.76142 5 5ZM10 2C8.34315 2 7 3.34315 7 5C7 6.65685 8.34315 8 10 8C11.6569 8 13 6.65685 13 5C13 3.34315 11.6569 2 10 2Z" fill="white"/>
<path fill-rule="evenodd" clip-rule="evenodd" d="M0 21C0 15.4772 4.47715 11 10 11C15.5228 11 20 15.4772 20 21V22H0V21ZM2.06189 20H17.9381C17.446 16.0537 14.0796 13 10 13C5.92038 13 2.55399 16.0537 2.06189 20Z" fill="white"/>
</svg>
